solid OpenSCAD_Model
  facet normal -0.707107 -0.707107 0
    outer loop
      vertex 3.53453 -0.00100076 3.53553
      vertex -0.00100076 3.53453 46.3645
      vertex -0.00100076 3.53453 3.53553
    endloop
  endfacet
  facet normal -0.707107 -0.707107 0
    outer loop
      vertex -0.00100076 3.53453 46.3645
      vertex 3.53453 -0.00100076 3.53553
      vertex 3.53453 -0.00100076 46.3645
    endloop
  endfacet
  facet normal -1 0 0
    outer loop
      vertex -0.00100076 3.53453 3.53553
      vertex -0.00100076 46.3635 46.3645
      vertex -0.00100076 46.3635 3.53553
    endloop
  endfacet
  facet normal -1 -0 0
    outer loop
      vertex -0.00100076 46.3635 46.3645
      vertex -0.00100076 3.53453 3.53553
      vertex -0.00100076 3.53453 46.3645
    endloop
  endfacet
  facet normal -0.57735 -0.57735 -0.57735
    outer loop
      vertex 3.53453 3.53453 -7.62939e-07
      vertex 3.53453 -0.00100076 3.53553
      vertex -0.00100076 3.53453 3.53553
    endloop
  endfacet
  facet normal -0.707107 0 -0.707107
    outer loop
      vertex 3.53453 3.53453 -7.62939e-07
      vertex -0.00100076 46.3635 3.53553
      vertex 3.53453 46.3635 -7.62939e-07
    endloop
  endfacet
  facet normal -0.707107 -0 -0.707107
    outer loop
      vertex -0.00100076 46.3635 3.53553
      vertex 3.53453 3.53453 -7.62939e-07
      vertex -0.00100076 3.53453 3.53553
    endloop
  endfacet
  facet normal -0.707104 0 0.70711
    outer loop
      vertex -0.00100076 3.53453 46.3645
      vertex 3.53453 46.3635 49.9
      vertex -0.00100076 46.3635 46.3645
    endloop
  endfacet
  facet normal -0.707104 0 0.70711
    outer loop
      vertex 3.53453 46.3635 49.9
      vertex -0.00100076 3.53453 46.3645
      vertex 3.53453 3.53453 49.9
    endloop
  endfacet
  facet normal -0.577349 -0.577349 0.577354
    outer loop
      vertex 3.53453 -0.00100076 46.3645
      vertex 3.53453 3.53453 49.9
      vertex -0.00100076 3.53453 46.3645
    endloop
  endfacet
  facet normal -0.577349 0.577354 -0.577349
    outer loop
      vertex 3.53453 49.899 3.53553
      vertex 3.53453 46.3635 -7.62939e-07
      vertex -0.00100076 46.3635 3.53553
    endloop
  endfacet
  facet normal -0.707104 0.70711 0
    outer loop
      vertex -0.00100076 46.3635 3.53553
      vertex 3.53453 49.899 46.3645
      vertex 3.53453 49.899 3.53553
    endloop
  endfacet
  facet normal -0.707104 0.70711 0
    outer loop
      vertex 3.53453 49.899 46.3645
      vertex -0.00100076 46.3635 3.53553
      vertex -0.00100076 46.3635 46.3645
    endloop
  endfacet
  facet normal -0.577347 0.577352 0.577352
    outer loop
      vertex 3.53453 46.3635 49.9
      vertex 3.53453 49.899 46.3645
      vertex -0.00100076 46.3635 46.3645
    endloop
  endfacet
  facet normal 0 -1 0
    outer loop
      vertex 3.53453 -0.00100076 3.53553
      vertex 146.363 -0.00100076 46.3645
      vertex 3.53453 -0.00100076 46.3645
    endloop
  endfacet
  facet normal 0 -1 -0
    outer loop
      vertex 146.363 -0.00100076 46.3645
      vertex 3.53453 -0.00100076 3.53553
      vertex 146.363 -0.00100076 3.53553
    endloop
  endfacet
  facet normal 0 -0.707107 -0.707107
    outer loop
      vertex 3.53453 3.53453 -7.62939e-07
      vertex 146.363 -0.00100076 3.53553
      vertex 3.53453 -0.00100076 3.53553
    endloop
  endfacet
  facet normal 0 -0.707107 -0.707107
    outer loop
      vertex 146.363 -0.00100076 3.53553
      vertex 3.53453 3.53453 -7.62939e-07
      vertex 146.363 3.53453 -7.62939e-07
    endloop
  endfacet
  facet normal 0 -0.707104 0.70711
    outer loop
      vertex 3.53453 -0.00100076 46.3645
      vertex 146.363 3.53453 49.9
      vertex 3.53453 3.53453 49.9
    endloop
  endfacet
  facet normal 0 -0.707104 0.70711
    outer loop
      vertex 146.363 3.53453 49.9
      vertex 3.53453 -0.00100076 46.3645
      vertex 146.363 -0.00100076 46.3645
    endloop
  endfacet
  facet normal 0 0 -1
    outer loop
      vertex 3.53453 3.53453 -7.62939e-07
      vertex 146.363 46.3635 -7.62939e-07
      vertex 146.363 3.53453 -7.62939e-07
    endloop
  endfacet
  facet normal -0 0 -1
    outer loop
      vertex 146.363 46.3635 -7.62939e-07
      vertex 3.53453 3.53453 -7.62939e-07
      vertex 3.53453 46.3635 -7.62939e-07
    endloop
  endfacet
  facet normal -0 0 1
    outer loop
      vertex 3.53453 46.3635 49.9
      vertex 146.363 3.53453 49.9
      vertex 146.363 46.3635 49.9
    endloop
  endfacet
  facet normal 0 0 1
    outer loop
      vertex 146.363 3.53453 49.9
      vertex 3.53453 46.3635 49.9
      vertex 3.53453 3.53453 49.9
    endloop
  endfacet
  facet normal 0 0.70711 -0.707104
    outer loop
      vertex 146.363 46.3635 -7.62939e-07
      vertex 3.53453 49.899 3.53553
      vertex 146.363 49.899 3.53553
    endloop
  endfacet
  facet normal 0 0.70711 -0.707104
    outer loop
      vertex 3.53453 49.899 3.53553
      vertex 146.363 46.3635 -7.62939e-07
      vertex 3.53453 46.3635 -7.62939e-07
    endloop
  endfacet
  facet normal 0 0.707107 0.707107
    outer loop
      vertex 146.363 49.899 46.3645
      vertex 3.53453 46.3635 49.9
      vertex 146.363 46.3635 49.9
    endloop
  endfacet
  facet normal 0 0.707107 0.707107
    outer loop
      vertex 3.53453 46.3635 49.9
      vertex 146.363 49.899 46.3645
      vertex 3.53453 49.899 46.3645
    endloop
  endfacet
  facet normal 0 1 -0
    outer loop
      vertex 146.363 49.899 3.53553
      vertex 3.53453 49.899 46.3645
      vertex 146.363 49.899 46.3645
    endloop
  endfacet
  facet normal 0 1 0
    outer loop
      vertex 3.53453 49.899 46.3645
      vertex 146.363 49.899 3.53553
      vertex 3.53453 49.899 3.53553
    endloop
  endfacet
  facet normal 0.70706 -0.707154 0
    outer loop
      vertex 146.363 -0.00100076 46.3645
      vertex 149.899 3.53453 3.53553
      vertex 149.899 3.53453 46.3645
    endloop
  endfacet
  facet normal 0.70706 -0.707154 0
    outer loop
      vertex 149.899 3.53453 3.53553
      vertex 146.363 -0.00100076 46.3645
      vertex 146.363 -0.00100076 3.53553
    endloop
  endfacet
  facet normal 0.577299 -0.577376 -0.577376
    outer loop
      vertex 146.363 3.53453 -7.62939e-07
      vertex 149.899 3.53453 3.53553
      vertex 146.363 -0.00100076 3.53553
    endloop
  endfacet
  facet normal 0.577298 -0.577374 0.577379
    outer loop
      vertex 149.899 3.53453 46.3645
      vertex 146.363 3.53453 49.9
      vertex 146.363 -0.00100076 46.3645
    endloop
  endfacet
  facet normal 0.70706 0 -0.707154
    outer loop
      vertex 149.899 3.53453 3.53553
      vertex 146.363 46.3635 -7.62939e-07
      vertex 149.899 46.3635 3.53553
    endloop
  endfacet
  facet normal 0.70706 0 -0.707154
    outer loop
      vertex 146.363 46.3635 -7.62939e-07
      vertex 149.899 3.53453 3.53553
      vertex 146.363 3.53453 -7.62939e-07
    endloop
  endfacet
  facet normal 0.707057 -0 0.707157
    outer loop
      vertex 146.363 3.53453 49.9
      vertex 149.899 46.3635 46.3645
      vertex 146.363 46.3635 49.9
    endloop
  endfacet
  facet normal 0.707057 0 0.707157
    outer loop
      vertex 149.899 46.3635 46.3645
      vertex 146.363 3.53453 49.9
      vertex 149.899 3.53453 46.3645
    endloop
  endfacet
  facet normal 0.577298 0.577379 -0.577374
    outer loop
      vertex 146.363 49.899 3.53553
      vertex 149.899 46.3635 3.53553
      vertex 146.363 46.3635 -7.62939e-07
    endloop
  endfacet
  facet normal 0.577296 0.577377 0.577377
    outer loop
      vertex 149.899 46.3635 46.3645
      vertex 146.363 49.899 46.3645
      vertex 146.363 46.3635 49.9
    endloop
  endfacet
  facet normal 0.707057 0.707157 0
    outer loop
      vertex 149.899 46.3635 46.3645
      vertex 146.363 49.899 3.53553
      vertex 146.363 49.899 46.3645
    endloop
  endfacet
  facet normal 0.707057 0.707157 0
    outer loop
      vertex 146.363 49.899 3.53553
      vertex 149.899 46.3635 46.3645
      vertex 149.899 46.3635 3.53553
    endloop
  endfacet
  facet normal 1 -0 0
    outer loop
      vertex 149.899 3.53453 46.3645
      vertex 149.899 46.3635 3.53553
      vertex 149.899 46.3635 46.3645
    endloop
  endfacet
  facet normal 1 0 0
    outer loop
      vertex 149.899 46.3635 3.53553
      vertex 149.899 3.53453 46.3645
      vertex 149.899 3.53453 3.53553
    endloop
  endfacet
endsolid OpenSCAD_Model
